<?xml version="1.0" standalone="no"?>
<!DOCTYPE svg PUBLIC "-//W3C//DTD SVG 20010904//EN"
 "http://www.w3.org/TR/2001/REC-SVG-20010904/DTD/svg10.dtd">
<svg version="1.0" xmlns="http://www.w3.org/2000/svg"
 width="994.000000pt" height="900.000000pt" viewBox="0 0 994.000000 900.000000"
 preserveAspectRatio="xMidYMid meet">

<g transform="translate(0.000000,900.000000) scale(0.100000,-0.100000)"
fill="#000000" stroke="none">
<path d="M0 4500 l0 -4500 4970 0 4970 0 0 4500 0 4500 -4970 0 -4970 0 0
-4500z m8010 -125 l0 -2635 -3040 0 -3040 0 0 1369 c0 1487 -4 1375 51 1406
10 5 108 69 218 140 202 131 484 313 913 590 128 82 281 181 340 220 141 93
273 178 375 242 97 61 66 65 291 -40 86 -41 180 -84 207 -97 28 -12 165 -75
305 -140 140 -64 287 -132 326 -149 l71 -33 124 75 c68 40 237 140 374 222
138 81 277 165 310 185 33 20 139 83 235 140 96 56 342 202 545 323 469 279
600 356 755 447 250 147 397 234 505 300 61 38 116 68 123 69 9 1 12 -532 12
-2634z"/>
<path d="M7570 6375 c-47 -28 -209 -125 -360 -215 -151 -89 -286 -170 -300
-180 -14 -9 -83 -51 -155 -92 -71 -42 -175 -102 -230 -135 -55 -33 -224 -134
-375 -224 -151 -89 -315 -187 -365 -217 -49 -29 -97 -58 -105 -63 -67 -39
-303 -179 -430 -254 -229 -135 -184 -132 -411 -27 -318 147 -438 201 -565 257
-67 29 -149 67 -182 84 -34 17 -85 40 -112 51 l-51 20 -177 -116 c-206 -135
-260 -170 -477 -309 -289 -187 -368 -237 -585 -380 -118 -77 -263 -172 -322
-209 l-108 -68 0 -349 c0 -240 3 -349 11 -349 5 0 61 30 122 67 62 36 155 89
207 118 52 28 136 75 185 104 114 67 818 472 905 521 36 20 144 81 240 135 96
54 227 127 290 162 l114 62 56 -31 c64 -36 324 -179 425 -233 67 -37 103 -56
300 -160 50 -26 94 -51 100 -56 16 -15 31 -10 91 30 33 21 156 100 274 176
118 76 251 161 295 190 328 214 658 428 905 587 187 121 587 381 670 438 47
31 118 76 158 99 l72 43 0 289 c0 225 -3 289 -12 288 -7 0 -51 -25 -98 -54z"/>
<path d="M7493 5338 c-95 -62 -228 -149 -295 -192 -68 -44 -200 -130 -293
-191 -94 -61 -215 -140 -270 -175 -55 -34 -149 -95 -210 -135 -163 -107 -730
-472 -805 -518 -91 -56 -311 -206 -334 -228 -22 -20 -12 -24 -266 116 -105 58
-353 191 -500 268 -52 27 -114 60 -137 73 -23 13 -48 24 -56 24 -14 0 -570
-311 -591 -330 -11 -11 27 -30 249 -125 99 -42 198 -85 220 -95 22 -10 101
-43 175 -74 74 -31 149 -63 165 -71 52 -25 239 -106 265 -115 14 -4 56 -22 93
-39 l69 -31 65 30 c35 17 67 30 69 30 5 0 78 32 264 116 41 18 221 96 400 173
304 130 505 218 895 389 88 38 246 107 350 152 212 91 494 214 540 235 17 7
51 23 78 34 l47 20 0 386 c0 212 -3 385 -8 385 -4 0 -85 -51 -179 -112z"/>
<path d="M7595 4281 c-38 -16 -97 -41 -130 -56 -33 -15 -127 -56 -210 -92 -82
-36 -184 -80 -225 -98 -41 -18 -129 -56 -195 -84 -66 -29 -178 -78 -250 -110
-204 -91 -417 -184 -575 -252 -277 -118 -736 -317 -880 -381 l-146 -65 -49 17
c-28 9 -212 86 -410 172 -504 218 -631 272 -780 334 -71 30 -148 63 -170 74
-76 36 -207 90 -218 90 -7 0 -46 -20 -87 -43 -41 -24 -212 -123 -380 -219
-386 -222 -420 -242 -420 -248 0 -7 43 -28 465 -236 452 -222 879 -432 1335
-656 206 -102 445 -220 530 -262 85 -42 162 -76 172 -76 9 0 134 59 278 130
143 72 262 130 264 130 2 0 302 148 667 328 365 181 774 382 909 448 134 65
321 158 415 205 l170 87 3 446 c1 245 -1 446 -5 445 -5 0 -39 -13 -78 -28z"/>
<path d="M2260 2555 l0 -485 988 0 987 1 -645 321 c-355 176 -699 346 -765
378 -66 32 -218 105 -338 164 -119 58 -219 106 -222 106 -3 0 -5 -218 -5 -485z"/>
<path d="M7524 2971 c-77 -38 -425 -210 -774 -382 -349 -173 -727 -360 -840
-416 l-205 -101 988 -1 987 -1 0 485 c0 267 -4 485 -9 485 -4 0 -71 -31 -147
-69z"/>
</g>
</svg>
